<svg version="1.1" id="Layer_1" xmlns="http://www.w3.org/2000/svg" xmlns:xlink="http://www.w3.org/1999/xlink" x="0px" y="0px"
	 width="100%" viewBox="0 0 2250 2250" enable-background="new 0 0 2250 2250" xml:space="preserve">
<path fill="#024A80" opacity="1.000000" stroke="none" 
	d="
M2252.000000,8.000000 
	C2252.000000,755.909668 2252.000000,1503.819336 2252.000000,2251.864502 
	C1502.180908,2251.864502 752.361816,2251.864502 2.000000,2251.864502 
	C2.000000,1504.604980 2.000000,757.209717 2.907207,8.895566 
	C554.948120,7.975441 1106.081909,7.971853 1657.215576,7.974411 
	C1855.477051,7.975331 2053.738525,7.991040 2252.000000,8.000000 
M1030.278687,1208.873779 
	C1059.737183,1195.293213 1088.575806,1180.333008 1120.061646,1166.941772 
	C1120.462280,1173.079224 1120.969238,1177.260254 1120.972900,1181.441650 
	C1121.025024,1241.422119 1121.006470,1301.402588 1121.016357,1361.383057 
	C1121.017090,1365.380859 1120.895264,1369.394897 1121.197388,1373.373657 
	C1123.133789,1398.872437 1141.449585,1418.352539 1165.739624,1418.959839 
	C1196.044312,1419.717529 1226.381470,1419.269653 1256.703857,1419.145508 
	C1264.225464,1419.114746 1265.108154,1418.038452 1265.248901,1410.177734 
	C1265.439941,1399.517822 1265.375244,1388.851807 1265.294067,1378.189209 
	C1265.213379,1367.572998 1264.709229,1367.036377 1253.822754,1366.995361 
	C1232.829956,1366.916138 1211.836548,1366.965332 1190.843384,1366.981201 
	C1172.406128,1366.995239 1173.293335,1367.759033 1173.295166,1349.629517 
	C1173.303345,1265.990112 1173.311035,1182.350586 1173.289307,1098.711182 
	C1173.288208,1094.528076 1173.010864,1090.344971 1172.803223,1084.507202 
	C1167.917358,1086.541016 1164.617432,1087.781372 1161.429321,1089.262695 
	C1137.863892,1100.211670 1114.319092,1111.204590 1090.771240,1122.191406 
	C1042.467896,1144.728271 994.065735,1167.056763 945.906677,1189.897949 
	C921.049988,1201.687012 909.408813,1233.239136 919.850281,1261.005737 
	C956.278992,1243.821411 992.612000,1226.682129 1030.278687,1208.873779 
M1332.196289,905.731140 
	C1310.986084,915.405029 1289.779297,925.086487 1268.564819,934.750977 
	C1240.077393,947.728760 1211.596558,960.721619 1183.070923,973.615112 
	C1180.557861,974.750977 1177.734497,975.199890 1173.991455,976.272827 
	C1173.716675,971.189148 1173.366821,967.595093 1173.354492,963.999878 
	C1173.294434,946.343079 1173.326782,928.685974 1173.318726,911.028992 
	C1173.317627,908.697205 1173.428711,906.351196 1173.217285,904.036499 
	C1172.693237,898.300232 1171.415771,897.133850 1165.689209,897.222412 
	C1163.711914,897.252930 1161.717041,897.627258 1159.772095,898.041260 
	C1136.170288,903.064758 1121.276489,921.590393 1121.082275,947.039490 
	C1120.820435,981.352051 1120.979980,1015.668091 1121.033203,1049.982422 
	C1121.037476,1052.813354 1121.612427,1055.643555 1122.030396,1059.462036 
	C1125.572876,1058.347534 1128.093384,1057.800415 1130.406250,1056.781982 
	C1138.026123,1053.426636 1145.582397,1049.925659 1153.142212,1046.435547 
	C1193.963257,1027.589722 1234.801147,1008.779907 1275.586670,989.857422 
	C1300.361084,978.363220 1325.094849,966.779358 1349.765259,955.063904 
	C1368.269043,946.276855 1376.532471,930.928223 1377.091064,910.959045 
	C1377.249390,905.300476 1377.213867,899.627747 1376.996460,893.971985 
	C1376.914795,891.847656 1376.064209,889.752930 1375.216187,886.177124 
	C1360.713867,892.778992 1347.151733,898.953003 1332.196289,905.731140 
z"/>
<path fill="#E6F4F6" opacity="1.000000" stroke="none" 
	d="
M2252.000000,7.000004 
	C2053.738525,7.991040 1855.477051,7.975331 1657.215576,7.974411 
	C1106.081909,7.971853 554.948120,7.975441 2.907207,7.988301 
	C2.000000,6.333333 2.000000,4.666667 2.000000,2.000000 
	C3.602314,2.000000 5.301157,2.000000 7.000000,2.000000 
	C752.333313,2.000000 1497.666626,2.000000 2243.000000,2.000000 
	C2245.333252,2.000000 2247.672607,2.105664 2249.998779,1.976385 
	C2253.947510,1.756917 2251.176270,4.745178 2252.000000,7.000004 
z"/>
<path fill="#000204" opacity="1.000000" stroke="none" 
	d="
M1029.611816,1209.208374 
	C992.612000,1226.682129 956.278992,1243.821411 919.850281,1261.005737 
	C909.408813,1233.239136 921.049988,1201.687012 945.906677,1189.897949 
	C994.065735,1167.056763 1042.467896,1144.728271 1090.771240,1122.191406 
	C1114.319092,1111.204590 1137.863892,1100.211670 1161.429321,1089.262695 
	C1164.617432,1087.781372 1167.917358,1086.541016 1172.803223,1084.507202 
	C1173.010864,1090.344971 1173.288208,1094.528076 1173.289307,1098.711182 
	C1173.311035,1182.350586 1173.303345,1265.990112 1173.295166,1349.629517 
	C1173.293335,1367.759033 1172.406128,1366.995239 1190.843384,1366.981201 
	C1211.836548,1366.965332 1232.829956,1366.916138 1253.822754,1366.995361 
	C1264.709229,1367.036377 1265.213379,1367.572998 1265.294067,1378.189209 
	C1265.375244,1388.851807 1265.439941,1399.517822 1265.248901,1410.177734 
	C1265.108154,1418.038452 1264.225464,1419.114746 1256.703857,1419.145508 
	C1226.381470,1419.269653 1196.044312,1419.717529 1165.739624,1418.959839 
	C1141.449585,1418.352539 1123.133789,1398.872437 1121.197388,1373.373657 
	C1120.895264,1369.394897 1121.017090,1365.380859 1121.016357,1361.383057 
	C1121.006470,1301.402588 1121.025024,1241.422119 1120.972900,1181.441650 
	C1120.969238,1177.260254 1120.462280,1173.079224 1120.061646,1166.941772 
	C1088.575806,1180.333008 1059.737183,1195.293213 1029.611816,1209.208374 
z"/>
<path fill="#000204" opacity="1.000000" stroke="none" 
	d="
M1332.892822,905.429077 
	C1347.151733,898.953003 1360.713867,892.778992 1375.216187,886.177124 
	C1376.064209,889.752930 1376.914795,891.847656 1376.996460,893.971985 
	C1377.213867,899.627747 1377.249390,905.300476 1377.091064,910.959045 
	C1376.532471,930.928223 1368.269043,946.276855 1349.765259,955.063904 
	C1325.094849,966.779358 1300.361084,978.363220 1275.586670,989.857422 
	C1234.801147,1008.779907 1193.963257,1027.589722 1153.142212,1046.435547 
	C1145.582397,1049.925659 1138.026123,1053.426636 1130.406250,1056.781982 
	C1128.093384,1057.800415 1125.572876,1058.347534 1122.030396,1059.462036 
	C1121.612427,1055.643555 1121.037476,1052.813354 1121.033203,1049.982422 
	C1120.979980,1015.668091 1120.820435,981.352051 1121.082275,947.039490 
	C1121.276489,921.590393 1136.170288,903.064758 1159.772095,898.041260 
	C1161.717041,897.627258 1163.711914,897.252930 1165.689209,897.222412 
	C1171.415771,897.133850 1172.693237,898.300232 1173.217285,904.036499 
	C1173.428711,906.351196 1173.317627,908.697205 1173.318726,911.028992 
	C1173.326782,928.685974 1173.294434,946.343079 1173.354492,963.999878 
	C1173.366821,967.595093 1173.716675,971.189148 1173.991455,976.272827 
	C1177.734497,975.199890 1180.557861,974.750977 1183.070923,973.615112 
	C1211.596558,960.721619 1240.077393,947.728760 1268.564819,934.750977 
	C1289.779297,925.086487 1310.986084,915.405029 1332.892822,905.429077 
z"/>
</svg>